<?xml version="1.0" encoding="UTF-8" standalone="no"?><!DOCTYPE svg PUBLIC "-//W3C//DTD SVG 1.1//EN" "http://www.w3.org/Graphics/SVG/1.1/DTD/svg11.dtd"><svg width="100%" height="100%" viewBox="0 0 1200 631" version="1.1" xmlns="http://www.w3.org/2000/svg" xmlns:xlink="http://www.w3.org/1999/xlink" xml:space="preserve" xmlns:serif="http://www.serif.com/" style="fill-rule:evenodd;clip-rule:evenodd;stroke-linejoin:round;stroke-miterlimit:2;"><rect id="og-docs-image" x="0" y="0.623" width="1200" height="630" style="fill:none;"/><clipPath id="_clip1"><rect id="og-docs-image1" serif:id="og-docs-image" x="0" y="0.623" width="1200" height="630"/></clipPath><g clip-path="url(#_clip1)"><g><g><path d="M523.809,237.604l44.281,-0c21.344,-0 36.423,5.548 45.236,16.645c8.814,11.097 10.832,27.423 6.053,48.98c-7.115,31.857 -27.715,47.785 -61.802,47.785l-57.82,-0l24.052,-113.41Zm59.572,57.82c3.929,-18.583 -2.496,-27.875 -19.274,-27.875l-10.672,0l-11.309,53.52l14.336,-0c7.645,-0 13.566,-1.992 17.76,-5.974c4.194,-3.982 7.247,-10.539 9.159,-19.671Z"/><path d="M480.979,178.626l89.705,-0c43.239,-0 73.786,11.24 91.641,33.72c17.855,22.48 21.942,55.554 12.262,99.224c-14.413,64.536 -56.147,96.804 -125.2,96.804l-117.133,-0l48.725,-229.748Zm120.682,117.132c7.959,-37.646 -5.055,-56.469 -39.044,-56.469l-21.62,0l-22.91,108.421l29.041,-0c15.489,-0 27.482,-4.034 35.979,-12.101c8.497,-8.067 14.682,-21.35 18.554,-39.851Z" style="fill:#fff;"/><path d="M434.506,107.441l145.294,-0c70.033,-0 119.51,18.205 148.429,54.615c28.919,36.411 35.539,89.981 19.86,160.711c-23.344,104.528 -90.939,156.792 -202.783,156.792l-189.718,-0l78.918,-372.118Zm195.467,189.717c12.892,-60.974 -8.188,-91.462 -63.239,-91.462l-35.017,0l-37.107,175.607l47.037,-0c25.087,-0 44.511,-6.533 58.274,-19.599c13.763,-13.066 23.78,-34.581 30.052,-64.546Z"/><path d="M325.852,-58.993l275.261,0c132.68,0 226.414,34.49 281.202,103.471c54.788,68.98 67.33,170.47 37.626,304.47c-44.227,198.029 -172.286,297.044 -384.177,297.044l-359.424,-0l149.512,-704.985Zm370.315,359.424c24.424,-115.517 -15.512,-173.276 -119.807,-173.276l-66.34,-0l-70.301,332.689l89.114,0c47.527,0 84.327,-12.377 110.401,-37.13c26.074,-24.754 45.052,-65.515 56.933,-122.283Z" style="fill:#fff;"/><path d="M223.69,-215.483l397.464,0c191.583,0 326.93,49.802 406.042,149.406c79.112,99.605 97.221,246.152 54.33,439.641c-63.862,285.946 -248.773,428.918 -554.734,428.918l-518.991,0l215.889,-1017.97Zm534.717,518.991c35.267,-166.802 -22.399,-250.202 -172.996,-250.202l-95.792,-0l-101.511,480.388l128.676,-0c68.627,-0 121.765,-17.872 159.414,-53.615c37.65,-35.743 65.053,-94.6 82.209,-176.571Z"/><path d="M129.581,-359.636l510.033,-0c245.843,-0 419.524,63.907 521.041,191.721c101.518,127.814 124.756,315.866 69.717,564.155c-81.948,366.93 -319.229,550.396 -711.845,550.396l-665.978,-0l277.032,-1306.27Zm686.16,665.978c45.254,-214.042 -28.743,-321.064 -221.993,-321.064l-122.922,0l-130.26,616.443l165.119,0c88.063,0 156.251,-22.933 204.563,-68.799c48.313,-45.867 83.477,-121.393 105.493,-226.58Z" style="fill:#fff;"/></g><g><path d="M1144.09,556.883l30.428,32.171c14.667,15.506 20.997,30.274 18.992,44.302c-2.006,14.029 -12.481,26.713 -31.425,38.054c-28.033,16.722 -53.761,12.701 -77.184,-12.064l-39.732,-42.006l98.921,-60.457Zm-1.071,83.011c16.201,-9.915 18.536,-20.967 7.007,-33.156l-7.333,-7.754l-46.654,28.56l9.851,10.415c5.254,5.555 10.768,8.488 16.544,8.799c5.775,0.311 12.637,-1.977 20.585,-6.864Z"/><path d="M1149.89,532.649l41.624,44.008c20.064,21.213 28.724,41.414 25.98,60.604c-2.743,19.191 -17.073,36.543 -42.988,52.057c-38.348,22.875 -73.543,17.374 -105.585,-16.503l-54.351,-57.464l135.32,-82.702Zm-1.466,113.556c22.162,-13.563 25.357,-28.682 9.586,-45.357l-10.032,-10.606l-63.82,39.069l13.476,14.247c7.187,7.599 14.73,11.611 22.631,12.036c7.9,0.426 17.287,-2.704 28.159,-9.389Z" style="fill:#fff;"/><path d="M1156.61,504.566l54.599,57.725c26.317,27.825 37.677,54.324 34.078,79.496c-3.599,25.172 -22.395,47.933 -56.388,68.283c-50.302,30.005 -96.468,22.79 -138.497,-21.647l-71.293,-75.376l177.501,-108.481Zm-1.923,148.953c29.07,-17.792 33.261,-37.623 12.574,-59.496l-13.159,-13.912l-83.713,51.247l17.675,18.689c9.428,9.967 19.323,15.229 29.686,15.787c10.363,0.558 22.675,-3.547 36.937,-12.315Z"/></g><g><path d="M1665.34,10.007l-82.38,119.681c-39.709,57.688 -82.758,88.121 -129.147,91.297c-46.389,3.177 -94.27,-21.744 -143.642,-74.763c-72.865,-78.496 -77.59,-163.808 -14.175,-255.937l107.569,-156.274l261.775,275.996Zm-267.103,53.441c42.917,45.191 79.982,45.114 111.196,-0.233l19.854,-28.844l-123.611,-130.134l-26.67,38.745c-14.224,20.665 -19.856,40.369 -16.897,59.114c2.959,18.746 15.002,39.196 36.128,61.352Z"/><path d="M1864.04,14.873l-156.071,226.738c-75.229,109.291 -156.786,166.946 -244.671,172.965c-87.885,6.019 -178.596,-41.195 -272.132,-141.64c-138.045,-148.712 -146.997,-310.338 -26.855,-484.877l203.791,-296.065l495.938,522.879Zm-506.031,101.245c81.306,85.616 151.526,85.469 210.661,-0.442l37.614,-54.645l-234.183,-246.541l-50.527,73.404c-26.947,39.149 -37.618,76.48 -32.011,111.993c5.606,35.513 28.421,74.256 68.446,116.231Z" style="fill:#fff;"/><path d="M2050.87,19.449l-225.36,327.399c-108.627,157.812 -226.391,241.062 -353.293,249.753c-126.902,8.691 -257.884,-59.483 -392.946,-204.522c-199.33,-214.733 -212.256,-448.113 -38.777,-700.14l294.265,-427.504l716.111,755.014Zm-730.686,146.193c117.402,123.625 218.797,123.413 304.185,-0.638l54.314,-78.906l-338.15,-355.994l-72.958,105.993c-38.911,56.529 -54.319,110.433 -46.224,161.712c8.095,51.279 41.04,107.223 98.833,167.833Z"/><path d="M2222.97,23.664l-289.187,420.125c-139.392,202.506 -290.509,309.335 -453.352,320.487c-162.843,11.152 -330.922,-76.33 -504.236,-262.446c-255.784,-275.55 -272.371,-575.027 -49.76,-898.433l377.607,-548.58l918.928,968.847Zm-937.63,187.597c150.652,158.639 280.764,158.366 390.336,-0.818l69.696,-101.253l-433.92,-456.818l-93.622,136.011c-49.931,72.54 -69.703,141.711 -59.315,207.513c10.388,65.802 52.663,137.59 126.825,215.365Z" style="fill:#fff;"/></g><g><path d="M273.162,122.232l-25.496,36.204c-12.29,17.451 -25.508,26.585 -39.656,27.402c-14.148,0.816 -28.658,-6.935 -43.531,-23.253c-21.95,-24.16 -23.112,-50.174 -3.485,-78.044l33.292,-47.274l78.876,84.965Zm-81.575,15.414c12.932,13.913 24.227,14.01 33.888,0.292l6.145,-8.725l-37.246,-40.062l-8.255,11.721c-4.402,6.251 -6.183,12.237 -5.342,17.96c0.841,5.722 4.444,11.993 10.81,18.814Z"/><path d="M298.064,123.108l-34.877,49.526c-16.812,23.873 -34.894,36.367 -54.248,37.485c-19.353,1.117 -39.203,-9.486 -59.549,-31.809c-30.026,-33.05 -31.615,-68.636 -4.767,-106.761l45.542,-64.669l107.899,116.228Zm-111.59,21.087c17.689,19.031 33.142,19.164 46.357,0.399l8.405,-11.936l-50.951,-54.803l-11.291,16.034c-6.022,8.551 -8.458,16.74 -7.308,24.568c1.15,7.828 6.079,16.407 14.788,25.738Z" style="fill:#fff;"/><path d="M326.923,124.124l-45.75,64.964c-22.052,31.314 -45.771,47.703 -71.157,49.169c-25.386,1.466 -51.423,-12.442 -78.111,-41.724c-39.386,-43.351 -41.47,-90.031 -6.253,-140.039l59.738,-84.827l141.533,152.457Zm-146.375,27.66c23.203,24.964 43.472,25.138 60.807,0.524l11.026,-15.657l-66.834,-71.886l-14.811,21.031c-7.899,11.217 -11.094,21.96 -9.586,32.227c1.509,10.268 7.975,21.522 19.398,33.761Z"/></g><g><path d="M81.015,237.722l30.428,32.171c14.667,15.507 20.997,30.274 18.992,44.303c-2.006,14.028 -12.481,26.713 -31.425,38.054c-28.033,16.722 -53.761,12.7 -77.184,-12.064l-39.732,-42.007l98.921,-60.457Zm-1.071,83.012c16.2,-9.915 18.536,-20.968 7.007,-33.157l-7.333,-7.753l-46.654,28.56l9.851,10.415c5.254,5.554 10.768,8.487 16.544,8.798c5.775,0.311 12.637,-1.977 20.585,-6.863Z"/><path d="M86.814,213.489l41.624,44.008c20.063,21.212 28.723,41.413 25.98,60.604c-2.743,19.19 -17.073,36.542 -42.988,52.057c-38.348,22.874 -73.543,17.373 -105.585,-16.503l-54.351,-57.464l135.32,-82.702Zm-1.466,113.556c22.162,-13.564 25.357,-28.683 9.586,-45.357l-10.032,-10.606l-63.82,39.068l13.476,14.248c7.187,7.598 14.73,11.61 22.631,12.036c7.9,0.425 17.286,-2.705 28.159,-9.389Z" style="fill:#fff;"/><path d="M93.533,185.405l54.599,57.726c26.318,27.825 37.677,54.323 34.079,79.495c-3.599,25.173 -22.395,47.934 -56.388,68.284c-50.302,30.005 -96.468,22.789 -138.497,-21.647l-71.293,-75.376l177.5,-108.482Zm-1.922,148.953c29.07,-17.791 33.261,-37.623 12.574,-59.495l-13.159,-13.912l-83.714,51.247l17.676,18.688c9.428,9.967 19.323,15.23 29.686,15.788c10.363,0.558 22.675,-3.548 36.937,-12.316Z"/></g><g><path d="M-84.739,645.732l25.181,-36.424c12.138,-17.557 25.277,-26.805 39.417,-27.745c14.14,-0.939 28.717,6.686 43.731,22.875c22.158,23.969 23.545,49.972 4.161,78.011l-32.881,47.56l-79.609,-84.277Zm81.437,-16.122c-13.051,-13.799 -24.347,-13.798 -33.889,0.002l-6.068,8.779l37.591,39.737l8.153,-11.791c4.348,-6.289 6.076,-12.291 5.186,-18.006c-0.89,-5.715 -4.548,-11.955 -10.973,-18.721Z"/><path d="M-109.649,645.071l34.448,-49.827c16.604,-24.017 34.577,-36.668 53.92,-37.953c19.343,-1.285 39.284,9.146 59.822,31.292c30.312,32.788 32.209,68.359 5.692,106.715l-44.979,65.061l-108.903,-115.288Zm111.404,-22.053c-17.854,-18.878 -33.307,-18.877 -46.359,0.002l-8.302,12.009l51.424,54.359l11.152,-16.131c5.948,-8.603 8.313,-16.813 7.095,-24.631c-1.218,-7.817 -6.221,-16.353 -15.01,-25.608Z" style="fill:#fff;"/><path d="M-138.515,644.305l45.185,-65.358c21.78,-31.504 45.356,-48.098 70.728,-49.784c25.372,-1.685 51.529,11.997 78.47,41.046c39.76,43.008 42.249,89.668 7.466,139.98l-59,85.341l-142.849,-151.225Zm146.13,-28.927c-23.419,-24.762 -43.689,-24.761 -60.809,0.003l-10.89,15.752l67.454,71.304l14.628,-21.159c7.801,-11.285 10.904,-22.055 9.306,-32.309c-1.597,-10.254 -8.16,-21.452 -19.689,-33.591Z"/></g><g><path d="M972.611,460.53l-1.104,44.268c-0.532,21.337 -6.455,36.273 -17.768,44.807c-11.313,8.535 -27.685,10.144 -49.115,4.83c-31.67,-7.907 -47.079,-28.898 -46.23,-62.974l1.442,-57.802l112.775,26.871Zm-59.287,58.113c18.479,4.391 27.928,-1.8 28.346,-18.573l0.267,-10.669l-53.221,-12.64l-0.358,14.332c-0.19,7.643 1.653,13.611 5.529,17.903c3.876,4.293 10.355,7.508 19.437,9.647Z"/><path d="M993.81,447.433l-1.511,60.556c-0.728,29.189 -8.83,49.62 -24.305,61.295c-15.476,11.675 -37.872,13.877 -67.188,6.607c-43.323,-10.816 -64.403,-39.532 -63.24,-86.146l1.972,-79.071l154.272,36.759Zm-81.103,79.495c25.279,6.007 38.205,-2.462 38.777,-25.406l0.364,-14.594l-72.804,-17.291l-0.489,19.604c-0.261,10.456 2.26,18.62 7.563,24.491c5.302,5.872 14.165,10.271 26.589,13.196Z" style="fill:#fff;"/><path d="M1018.38,432.256l-1.981,79.431c-0.955,38.288 -11.582,65.088 -31.882,80.402c-20.3,15.314 -49.677,18.202 -88.131,8.666c-56.827,-14.187 -84.478,-51.854 -82.953,-112.999l2.587,-103.719l202.36,48.219Zm-106.383,104.274c33.159,7.88 50.113,-3.229 50.864,-33.325l0.477,-19.144l-95.497,-22.681l-0.642,25.715c-0.342,13.715 2.965,24.424 9.92,32.126c6.956,7.702 18.582,13.472 34.878,17.309Z"/></g><g><path d="M980.86,-16.641l28.235,34.112c13.609,16.442 18.95,31.596 16.021,45.461c-2.928,13.865 -14.219,25.83 -33.872,35.893c-29.077,14.832 -54.483,9.119 -76.218,-17.14l-36.867,-44.542l102.701,-53.784Zm-6.557,82.758c16.821,-8.822 19.882,-19.695 9.184,-32.62l-6.804,-8.221l-48.44,25.413l9.141,11.043c4.875,5.89 10.183,9.181 15.925,9.873c5.743,0.692 12.741,-1.137 20.994,-5.488Z"/><path d="M988.248,-40.439l38.624,46.664c18.617,22.492 25.923,43.222 21.917,62.189c-4.007,18.967 -19.452,35.334 -46.336,49.101c-39.777,20.289 -74.531,12.473 -104.263,-23.448l-50.433,-60.931l140.491,-73.575Zm-8.969,113.211c23.01,-12.069 27.198,-26.943 12.563,-44.624l-9.308,-11.246l-66.264,34.764l12.504,15.107c6.669,8.057 13.931,12.559 21.786,13.506c7.855,0.946 17.428,-1.556 28.719,-7.507Z" style="fill:#fff;"/><path d="M996.81,-68.017l50.663,61.21c24.421,29.503 34.003,56.695 28.748,81.574c-5.254,24.88 -25.514,46.348 -60.779,64.406c-52.175,26.614 -97.763,16.362 -136.763,-30.756l-66.153,-79.924l184.284,-96.51Zm-11.766,148.5c30.183,-15.83 35.676,-35.341 16.48,-58.533l-12.21,-14.752l-86.919,45.6l16.402,19.816c8.748,10.569 18.273,16.474 28.577,17.716c10.303,1.242 22.86,-2.04 37.67,-9.847Z"/></g><path d="M108.163,422.095l41.142,16.378c19.83,7.894 31.788,18.625 35.872,32.195c4.085,13.57 -0.079,29.485 -12.491,47.745c-18.392,26.967 -43.423,34.147 -75.093,21.54l-53.72,-21.385l64.29,-96.473Zm33.964,75.753c10.523,-15.812 7.991,-26.821 -7.597,-33.026l-9.916,-3.947l-30.301,45.542l13.319,5.302c7.104,2.827 13.34,3.167 18.71,1.019c5.37,-2.149 10.632,-7.112 15.785,-14.89Z" style="fill-rule:nonzero;"/><path d="M-5.665,-68.017l30.318,32.275c14.614,15.556 20.894,30.346 18.84,44.367c-2.053,14.022 -12.572,26.67 -31.555,37.947c-28.09,16.626 -53.804,12.516 -77.142,-12.328l-39.588,-42.142l99.127,-60.119Zm-1.355,83.008c16.234,-9.86 18.608,-20.904 7.121,-33.133l-7.307,-7.778l-46.751,28.4l9.815,10.449c5.235,5.572 10.739,8.524 16.514,8.855c5.774,0.33 12.643,-1.934 20.608,-6.793Z" style="fill-rule:nonzero;"/><path d="M-30.937,107.796l31.622,-30.998c15.242,-14.941 29.894,-21.535 43.956,-19.78c14.062,1.755 26.932,12.002 38.61,30.741c17.219,27.73 13.658,53.526 -10.684,77.387l-41.291,40.475l-62.213,-97.825Zm83.017,-0.412c-10.203,-16.021 -21.295,-18.159 -33.277,-6.414l-7.621,7.471l29.389,46.136l10.237,-10.035c5.46,-5.352 8.294,-10.918 8.502,-16.698c0.208,-5.78 -2.202,-12.6 -7.23,-20.46Z" style="fill-rule:nonzero;"/><path d="M287.197,267.091l0.922,-44.271c0.445,-21.34 6.306,-36.3 17.584,-44.88c11.278,-8.581 27.643,-10.258 49.095,-5.032c31.702,7.777 47.198,28.705 46.488,62.784l-1.204,57.808l-112.885,-26.409Zm59.048,-58.355c-18.497,-4.315 -27.921,1.914 -28.27,18.689l-0.222,10.669l53.272,12.422l0.299,-14.333c0.159,-7.644 -1.709,-13.604 -5.602,-17.88c-3.894,-4.277 -10.387,-7.466 -19.477,-9.567Z" style="fill-rule:nonzero;"/><path d="M159.735,442.625l41.141,16.377c19.831,7.894 31.789,18.626 35.873,32.195c4.085,13.57 -0.079,29.485 -12.491,47.746c-18.393,26.966 -43.424,34.146 -75.093,21.539l-53.721,-21.384l64.291,-96.473Zm33.964,75.753c10.523,-15.813 7.991,-26.822 -7.598,-33.027l-9.915,-3.947l-30.301,45.542l13.319,5.302c7.103,2.828 13.34,3.167 18.71,1.019c5.37,-2.149 10.631,-7.112 15.785,-14.889Z" style="fill:#fff;fill-rule:nonzero;"/><g><path d="M178.962,583.248l43.526,8.14c20.981,3.924 34.782,12.15 41.406,24.678c6.623,12.528 5.605,28.947 -3.055,49.258c-12.85,30.006 -36.027,41.875 -69.533,35.609l-56.835,-10.629l44.491,-107.056Zm47.927,67.786c7.279,-17.544 2.672,-27.858 -13.82,-30.943l-10.49,-1.962l-20.955,50.529l14.091,2.635c7.515,1.406 13.7,0.537 18.555,-2.606c4.855,-3.144 9.062,-9.028 12.619,-17.653Z"/><path d="M150.299,514.203l91.577,17.127c44.141,8.255 73.18,25.562 87.115,51.92c13.936,26.358 11.794,60.903 -6.427,103.636c-27.035,63.13 -75.8,88.104 -146.294,74.919l-119.577,-22.363l93.606,-225.239Zm100.837,142.618c15.313,-36.912 5.621,-58.612 -29.077,-65.102l-22.071,-4.128l-44.089,106.309l29.647,5.545c15.812,2.957 28.825,1.129 39.04,-5.484c10.215,-6.613 19.065,-18.993 26.55,-37.14Z" style="fill:#fff;"/></g><path d="M208.428,462.008l41.141,16.377c19.83,7.894 31.788,18.626 35.873,32.195c4.084,13.57 -0.08,29.485 -12.492,47.746c-18.392,26.966 -43.423,34.146 -75.093,21.539l-53.72,-21.384l64.291,-96.473Zm33.963,75.753c10.523,-15.813 7.991,-26.822 -7.597,-33.027l-9.916,-3.947l-30.301,45.542l13.319,5.302c7.104,2.828 13.34,3.167 18.71,1.019c5.37,-2.148 10.632,-7.112 15.785,-14.889Z" style="fill-rule:nonzero;"/><g><path d="M248.352,365.208l44.273,-0.832c21.34,-0.401 36.521,4.863 45.541,15.792c9.021,10.929 11.345,27.215 6.972,48.858c-6.515,31.984 -26.812,48.297 -60.893,48.938l-57.81,1.086l21.917,-113.842Zm60.648,56.69c3.579,-18.653 -3.019,-27.822 -19.794,-27.507l-10.67,0.2l-10.302,53.723l14.333,-0.27c7.645,-0.143 13.526,-2.245 17.645,-6.305c4.119,-4.061 7.048,-10.674 8.788,-19.841Z"/><path d="M234.34,344.602l60.564,-1.138c29.193,-0.549 49.959,6.653 62.299,21.603c12.34,14.951 15.519,37.229 9.538,66.835c-8.912,43.754 -36.679,66.069 -83.3,66.946l-79.082,1.486l29.981,-155.732Zm82.965,77.551c4.896,-25.518 -4.13,-38.061 -27.077,-37.63l-14.597,0.275l-14.092,73.49l19.607,-0.369c10.457,-0.196 18.503,-3.072 24.138,-8.626c5.634,-5.554 9.641,-14.601 12.021,-27.14Z" style="fill:#fff;"/><path d="M218.103,320.724l79.443,-1.493c38.292,-0.72 65.532,8.726 81.718,28.337c16.186,19.611 20.357,48.833 12.511,87.668c-11.69,57.393 -48.112,86.664 -109.266,87.813l-103.732,1.949l39.326,-204.274Zm108.826,101.723c6.422,-33.471 -5.417,-49.924 -35.518,-49.359l-19.146,0.36l-18.485,96.398l25.719,-0.483c13.717,-0.258 24.271,-4.03 31.662,-11.315c7.39,-7.286 12.646,-19.152 15.768,-35.601Z"/></g><path d="M250.985,478.949l41.141,16.377c19.831,7.894 31.789,18.626 35.873,32.196c4.085,13.569 -0.079,29.484 -12.491,47.745c-18.392,26.967 -43.424,34.146 -75.093,21.54l-53.721,-21.385l64.291,-96.473Zm33.964,75.753c10.523,-15.813 7.991,-26.821 -7.598,-33.027l-9.915,-3.947l-30.301,45.542l13.319,5.302c7.103,2.828 13.34,3.167 18.71,1.019c5.37,-2.148 10.631,-7.112 15.785,-14.889Z" style="fill:#fff;fill-rule:nonzero;"/><path d="M302.557,504.566l41.141,16.377c19.831,7.894 31.788,18.626 35.873,32.195c4.085,13.57 -0.079,29.485 -12.491,47.746c-18.393,26.966 -43.424,34.146 -75.094,21.539l-53.72,-21.384l64.291,-96.473Zm33.964,75.752c10.523,-15.812 7.99,-26.821 -7.598,-33.026l-9.915,-3.947l-30.301,45.542l13.319,5.302c7.103,2.828 13.34,3.167 18.71,1.019c5.37,-2.149 10.631,-7.112 15.785,-14.89Z" style="fill-rule:nonzero;"/><path d="M378.421,569.679l42.96,-10.736c20.707,-5.175 36.682,-3.448 47.923,5.181c11.241,8.629 17.157,23.979 17.747,46.051c0.822,32.631 -15.302,53.079 -48.372,61.343l-56.095,14.019l-4.163,-115.858Zm71.814,41.652c-0.694,-18.982 -9.179,-26.438 -25.457,-22.37l-10.353,2.587l2.004,54.665l13.908,-3.476c7.417,-1.854 12.678,-5.221 15.782,-10.101c3.104,-4.88 4.476,-11.982 4.116,-21.305Z" style="fill-rule:nonzero;"/><path d="M351.488,524.044l41.141,16.377c19.83,7.894 31.788,18.626 35.873,32.195c4.084,13.57 -0.079,29.485 -12.492,47.746c-18.392,26.966 -43.423,34.146 -75.093,21.539l-53.72,-21.384l64.291,-96.473Zm33.963,75.752c10.524,-15.812 7.991,-26.821 -7.597,-33.026l-9.915,-3.947l-30.302,45.542l13.319,5.302c7.104,2.828 13.341,3.167 18.71,1.019c5.37,-2.149 10.632,-7.112 15.785,-14.89Z" style="fill:#fff;fill-rule:nonzero;"/><g><path d="M1029.92,293.5l35.89,25.936c17.299,12.502 26.271,25.831 26.915,39.988c0.643,14.156 -7.284,28.571 -23.783,43.243c-24.426,21.653 -50.453,22.497 -78.081,2.531l-46.863,-33.867l85.922,-77.831Zm14.416,81.756c14.07,-12.76 14.305,-24.054 0.706,-33.881l-8.65,-6.251l-40.514,36.754l11.619,8.396c6.197,4.479 12.162,6.332 17.894,5.562c5.732,-0.771 12.047,-4.297 18.945,-10.58Z"/><path d="M998.756,263.697l-39.268,20.465c-18.928,9.865 -34.864,11.913 -47.809,6.146c-12.944,-5.767 -22.279,-19.313 -28.004,-40.638c-8.413,-31.538 2.494,-55.185 32.722,-70.938l51.274,-26.722l31.085,111.687Zm-79.551,-23.742c5.105,18.295 15.096,23.565 29.975,15.811l9.463,-4.932l-14.705,-52.687l-12.713,6.625c-6.78,3.534 -11.11,8.035 -12.989,13.505c-1.879,5.47 -1.556,12.696 0.969,21.678Z"/><path d="M1030.44,244.994l18.285,-40.329c8.813,-19.44 20.093,-30.882 33.839,-34.327c13.746,-3.445 29.449,1.459 47.108,14.712c26.077,19.634 32.077,44.974 18.002,76.019l-23.875,52.66l-93.359,-68.735Zm77.26,-30.381c-15.303,-11.252 -26.418,-9.237 -33.346,6.044l-4.407,9.719l44.074,32.4l5.92,-13.057c3.157,-6.963 3.788,-13.177 1.893,-18.642c-1.895,-5.464 -6.606,-10.952 -14.134,-16.464Z"/><path d="M1022.22,281.909l36.348,25.291c17.52,12.19 26.728,25.357 27.625,39.5c0.897,14.143 -6.772,28.697 -23.007,43.662c-24.035,22.086 -50.042,23.394 -78.022,3.925l-47.461,-33.024l84.517,-79.354Zm15.875,81.486c13.839,-13.01 13.873,-24.306 0.101,-33.889l-8.76,-6.096l-39.851,37.472l11.767,8.188c6.276,4.367 12.272,6.114 17.99,5.241c5.717,-0.873 11.968,-4.512 18.753,-10.916Z" style="fill:#fff;"/><path d="M990.537,252.668l-38.896,21.163c-18.749,10.201 -34.646,12.534 -47.691,6.999c-13.046,-5.535 -22.621,-18.912 -28.726,-40.131c-8.976,-31.383 1.507,-55.22 31.449,-71.511l50.789,-27.635l33.075,111.115Zm-79.962,-22.318c5.43,18.201 15.514,23.293 30.252,15.274l9.374,-5.101l-15.645,-52.416l-12.592,6.852c-6.716,3.654 -10.965,8.232 -12.746,13.735c-1.781,5.502 -1.329,12.721 1.357,21.656Z" style="fill:#fff;"/><path d="M1021.88,233.402l17.561,-40.65c8.465,-19.594 19.538,-31.236 33.22,-34.926c13.682,-3.69 29.47,0.932 47.364,13.868c26.423,19.165 32.876,44.393 19.357,75.685l-22.93,53.079l-94.572,-67.056Zm76.704,-31.757c-15.501,-10.977 -26.579,-8.764 -33.232,6.638l-4.233,9.797l44.646,31.607l5.685,-13.16c3.032,-7.019 3.552,-13.243 1.56,-18.673c-1.992,-5.43 -6.801,-10.833 -14.426,-16.209Z" style="fill:#fff;"/></g><g><path d="M1194.94,438.73l-41.286,-16.009c-19.9,-7.716 -31.953,-18.341 -36.159,-31.873c-4.206,-13.533 -0.185,-29.484 12.063,-47.855c18.151,-27.13 43.116,-34.534 74.898,-22.211l53.909,20.903l-63.425,97.045Zm-34.64,-75.446c-10.381,15.906 -7.75,26.891 7.893,32.957l9.95,3.858l29.892,-45.811l-13.366,-5.183c-7.128,-2.764 -13.367,-3.048 -18.718,-0.851c-5.35,2.196 -10.567,7.206 -15.651,15.03Z"/><path d="M1206.71,485.788l-7.482,43.644c-3.606,21.037 -11.622,34.962 -24.049,41.774c-12.426,6.812 -28.859,6.042 -49.298,-2.31c-30.197,-12.395 -42.416,-35.39 -36.656,-68.987l9.769,-56.989l107.716,42.868Zm-67.054,48.946c17.652,7.013 27.895,2.251 30.73,-14.286l1.803,-10.519l-50.839,-20.189l-2.422,14.129c-1.292,7.536 -0.33,13.708 2.887,18.514c3.216,4.807 9.163,8.924 17.841,12.351Z"/><path d="M1205.32,447.996l-41.565,-15.268c-20.036,-7.359 -32.277,-17.766 -36.724,-31.222c-4.447,-13.455 -0.711,-29.476 11.207,-48.063c17.663,-27.45 42.492,-35.298 74.489,-23.545l54.274,19.936l-61.681,98.162Zm-35.983,-74.814c-10.095,16.088 -7.268,27.025 8.481,32.81l10.017,3.68l29.069,-46.338l-13.456,-4.943c-7.177,-2.636 -13.42,-2.808 -18.731,-0.517c-5.31,2.292 -10.437,7.394 -15.38,15.308Z" style="fill:#fff;"/><path d="M1217.93,494.837l-6.701,43.771c-3.23,21.098 -10.996,35.164 -23.299,42.197c-12.302,7.033 -28.746,6.557 -49.331,-1.429c-30.414,-11.853 -43.041,-34.627 -37.883,-68.321l8.749,-57.154l108.465,40.936Zm-66.169,50.137c17.774,6.696 27.931,1.751 30.47,-14.834l1.615,-10.549l-51.192,-19.277l-2.169,14.17c-1.157,7.558 -0.085,13.711 3.217,18.46c3.301,4.748 9.321,8.758 18.059,12.03Z" style="fill:#fff;"/></g><g><path d="M-10.09,541.486l41.099,16.483c19.81,7.945 31.74,18.708 35.79,32.288c4.049,13.58 -0.155,29.484 -12.615,47.713c-18.461,26.919 -43.511,34.035 -75.148,21.346l-53.665,-21.522l64.539,-96.308Zm33.768,75.84c10.564,-15.785 8.06,-26.8 -7.512,-33.046l-9.905,-3.972l-30.418,45.464l13.305,5.336c7.096,2.846 13.332,3.202 18.707,1.067c5.376,-2.135 10.65,-7.084 15.823,-14.849Z"/><path d="M-21.317,494.296l7.984,-43.556c3.848,-20.994 12.024,-34.825 24.528,-41.494c12.504,-6.668 28.927,-5.709 49.269,2.878c30.052,12.742 42.005,35.877 35.859,69.405l-10.425,56.872l-107.215,-44.105Zm67.613,-48.171c-17.57,-7.215 -27.868,-2.572 -30.893,13.931l-1.924,10.497l50.603,20.774l2.585,-14.101c1.379,-7.52 0.488,-13.702 -2.673,-18.546c-3.161,-4.843 -9.06,-9.029 -17.698,-12.555Z"/><path d="M-20.358,532.101l41.387,15.745c19.949,7.59 32.07,18.138 36.361,31.643c4.292,13.506 0.372,29.483 -11.759,47.931c-17.978,27.245 -42.896,34.807 -74.755,22.686l-54.041,-20.56l62.807,-97.445Zm35.119,75.224c10.28,-15.972 7.579,-26.94 -8.102,-32.906l-9.975,-3.795l-29.6,46l13.398,5.097c7.146,2.719 13.387,2.963 18.723,0.733c5.337,-2.23 10.522,-7.273 15.556,-15.129Z" style="fill:#fff;"/><path d="M-32.426,485.118l7.204,-43.691c3.473,-21.06 11.401,-35.035 23.784,-41.926c12.383,-6.891 28.82,-6.225 49.312,1.997c30.274,12.203 42.639,35.121 37.093,68.753l-9.407,57.05l-107.986,-42.183Zm66.742,-49.371c-17.696,-6.9 -27.909,-2.073 -30.639,14.481l-1.737,10.53l50.967,19.866l2.332,-14.145c1.244,-7.544 0.243,-13.709 -3.004,-18.495c-3.246,-4.787 -9.22,-8.866 -17.919,-12.237Z" style="fill:#fff;"/></g><path d="M937.101,416.419l34.374,-27.914c16.569,-13.455 31.772,-18.654 45.609,-15.595c13.838,3.058 25.696,14.46 35.576,34.206c14.559,29.215 8.608,54.566 -17.853,76.054l-44.884,36.449l-52.822,-103.2Zm82.694,7.331c-8.665,-16.902 -19.509,-20.065 -32.534,-9.489l-8.284,6.728l24.959,48.675l11.128,-9.037c5.936,-4.82 9.276,-10.097 10.022,-15.833c0.746,-5.735 -1.018,-12.75 -5.291,-21.044Z" style="fill:#fff;fill-rule:nonzero;"/><path d="M378.936,259.538l43.526,8.14c20.98,3.924 34.782,12.15 41.406,24.678c6.623,12.528 5.605,28.947 -3.055,49.258c-12.85,30.006 -36.028,41.875 -69.534,35.609l-56.834,-10.63l44.491,-107.055Zm47.927,67.786c7.278,-17.544 2.672,-27.858 -13.82,-30.943l-10.491,-1.962l-20.955,50.529l14.091,2.635c7.516,1.405 13.701,0.537 18.556,-2.606c4.855,-3.144 9.061,-9.028 12.619,-17.653Z" style="fill:#fff;fill-rule:nonzero;"/><path d="M49.446,-16.638l42.119,-13.667c20.302,-6.588 36.357,-5.964 48.166,1.871c11.808,7.834 18.766,22.741 20.875,44.72c3.065,32.497 -11.614,54.006 -44.036,64.527l-54.998,17.846l-12.126,-115.297Zm74.51,36.611c-1.998,-18.889 -10.977,-25.744 -26.936,-20.565l-10.151,3.294l5.762,54.396l13.635,-4.424c7.273,-2.36 12.289,-6.081 15.05,-11.163c2.761,-5.083 3.641,-12.262 2.64,-21.538Z" style="fill:#fff;fill-rule:nonzero;"/><g><path d="M713.03,524.998l43.527,8.141c20.98,3.924 34.782,12.15 41.405,24.678c6.624,12.528 5.605,28.947 -3.054,49.257c-12.85,30.006 -36.028,41.876 -69.534,35.61l-56.835,-10.63l44.491,-107.056Zm47.928,67.787c7.278,-17.544 2.671,-27.859 -13.821,-30.943l-10.49,-1.962l-20.955,50.528l14.091,2.636c7.515,1.405 13.701,0.536 18.556,-2.607c4.855,-3.143 9.061,-9.027 12.619,-17.652Z"/><path d="M684.368,455.953l91.576,17.127c44.142,8.256 73.18,25.563 87.116,51.921c13.935,26.358 11.793,60.903 -6.427,103.635c-27.036,63.131 -75.801,88.104 -146.295,74.92l-119.577,-22.364l93.607,-225.239Zm100.836,142.619c15.313,-36.912 5.621,-58.613 -29.077,-65.102l-22.071,-4.128l-44.088,106.309l29.647,5.544c15.811,2.957 28.825,1.13 39.039,-5.483c10.215,-6.613 19.065,-18.993 26.55,-37.14Z" style="fill:#fff;"/></g><g><path d="M414.687,-43.461l43.526,8.141c20.98,3.924 34.782,12.15 41.406,24.678c6.623,12.527 5.605,28.947 -3.055,49.257c-12.85,30.006 -36.028,41.876 -69.534,35.61l-56.834,-10.63l44.491,-107.056Zm47.927,67.787c7.278,-17.545 2.672,-27.859 -13.82,-30.943l-10.49,-1.962l-20.956,50.528l14.091,2.636c7.516,1.405 13.701,0.536 18.556,-2.607c4.855,-3.143 9.061,-9.027 12.619,-17.652Z"/><path d="M386.024,-112.506l91.577,17.127c44.141,8.256 73.18,25.563 87.115,51.921c13.935,26.358 11.793,60.903 -6.427,103.635c-27.035,63.131 -75.8,88.104 -146.294,74.92l-119.577,-22.364l93.606,-225.239Zm100.837,142.619c15.313,-36.912 5.62,-58.613 -29.078,-65.102l-22.07,-4.128l-44.089,106.308l29.647,5.545c15.812,2.957 28.825,1.129 39.04,-5.483c10.215,-6.613 19.065,-18.993 26.55,-37.14Z" style="fill:#fff;"/></g></g><path d="M47.801,163.446l50.396,411.299l899.933,-51.759l-26.138,-213.483l128.993,-107.537l51.214,-160.523l-1104.4,122.003Z" style="fill:#d6e9d7;fill-opacity:0.63;"/><path d="M439.452,30.352l-381.572,664.548l227.92,-74.074l297.999,-54.087l307.779,25.567l141.11,-572.121l-593.236,10.167Z" style="fill:#e4cbc9;fill-opacity:0.69;"/><path d="M384.381,126.264l639.569,-70.653l-116.562,472.594l-779.538,44.835l256.531,-446.776Z" style="fill:#fff;"/><g><path d="M823.732,123.385l3.014,-14.428l11.198,0l-8.129,38.33l-10.875,0l0.7,-3.338c-2.225,2.656 -5.15,3.984 -8.775,3.984c-3.84,0 -6.639,-1.471 -8.398,-4.414c-1.83,-2.943 -2.207,-6.873 -1.13,-11.79c0.933,-4.163 2.637,-7.348 5.114,-9.556c2.476,-2.207 5.509,-3.31 9.098,-3.31c4.02,-0 6.747,1.507 8.183,4.522Zm-7.376,15.935c2.979,-0 4.863,-1.849 5.653,-5.545c0.861,-4.164 -0.359,-6.245 -3.661,-6.245c-2.943,-0 -4.827,1.884 -5.652,5.652c-0.862,4.092 0.359,6.138 3.66,6.138Z" style="fill-rule:nonzero;"/><path d="M852.802,148.148c-6.101,0 -10.515,-1.902 -13.243,-5.706c-2.728,-3.768 -3.374,-9.17 -1.938,-16.204c1.256,-5.958 3.526,-10.471 6.81,-13.539c3.284,-3.069 7.761,-4.603 13.432,-4.603c5.993,-0 10.336,1.884 13.028,5.652c2.691,3.733 3.301,9.134 1.83,16.204c-2.584,12.131 -9.224,18.196 -19.919,18.196Zm0.862,-9.69c1.579,0 2.898,-0.762 3.956,-2.288c1.059,-1.525 1.965,-4.01 2.719,-7.456c1.579,-7.285 0.413,-10.928 -3.499,-10.928c-3.158,-0 -5.419,3.158 -6.783,9.475c-1.544,7.465 -0.341,11.197 3.607,11.197Z" style="fill-rule:nonzero;"/><path d="M896.785,119.078c0.718,-0 1.364,0.054 1.938,0.161l-2.153,10.067l-2.584,0c-4.307,0 -7.017,2.315 -8.129,6.945l-2.369,11.036l-11.198,0l5.922,-27.778l10.982,-0l-1.023,4.737c1.831,-3.445 4.702,-5.168 8.614,-5.168Z" style="fill-rule:nonzero;"/><path d="M913.366,117.248l-11.198,-0l1.777,-8.399l11.197,0l-1.776,8.399Zm-6.406,30.039l-11.198,0l5.922,-27.778l11.197,-0l-5.921,27.778Z" style="fill-rule:nonzero;"/><path d="M926.179,147.933c-5.169,0 -8.91,-1.409 -11.225,-4.226c-2.315,-2.817 -2.952,-6.702 -1.911,-11.655c0.897,-4.163 2.781,-7.402 5.653,-9.717c2.871,-2.315 6.747,-3.472 11.628,-3.472c4.701,-0 8.254,1.094 10.659,3.283c2.405,2.19 3.338,5.043 2.799,8.56l-11.09,0c-0.107,-1.148 -0.439,-1.965 -0.995,-2.449c-0.557,-0.485 -1.391,-0.727 -2.504,-0.727c-2.584,-0 -4.289,1.83 -5.114,5.491c-0.897,4.199 0.126,6.299 3.069,6.299c2.296,-0 3.912,-1.239 4.845,-3.715l10.982,0c-0.79,3.553 -2.638,6.496 -5.545,8.829c-2.871,2.333 -6.622,3.499 -11.251,3.499Z" style="fill-rule:nonzero;"/><path d="M967.739,118.863c3.266,-0 5.607,1.076 7.025,3.23c1.418,2.153 1.642,5.365 0.673,9.636l-3.338,15.558l-11.197,0l3.23,-15.235c0.538,-2.548 -0.341,-3.822 -2.638,-3.822c-2.297,-0 -3.679,1.238 -4.145,3.714l-0.054,0l-3.23,15.343l-11.198,0l8.129,-38.33l11.252,0l-3.123,14.535c2.333,-3.086 5.204,-4.629 8.614,-4.629Z" style="fill-rule:nonzero;"/></g></g></svg>