<?xml version="1.0" encoding="UTF-8" standalone="no"?><!DOCTYPE svg PUBLIC "-//W3C//DTD SVG 1.1//EN" "http://www.w3.org/Graphics/SVG/1.1/DTD/svg11.dtd"><svg width="100%" height="100%" viewBox="0 0 64 64" version="1.1" xmlns="http://www.w3.org/2000/svg" xmlns:xlink="http://www.w3.org/1999/xlink" xml:space="preserve" xmlns:serif="http://www.serif.com/" style="fill-rule:evenodd;clip-rule:evenodd;stroke-linejoin:round;stroke-miterlimit:2;"><rect id="favicon" x="0" y="0" width="64" height="64" style="fill:none;"/><g id="favicon1" serif:id="favicon"><path d="M1.358,15.973l2.79,35.476l49.826,-4.464l-1.447,-18.414l7.141,-9.275l2.836,-13.846l-61.146,10.523Z" style="fill:#d6e9d7;"/><path d="M23.042,4.493l-21.126,57.32l12.619,-6.389l16.499,-4.666l17.04,2.206l7.813,-49.348l-32.845,0.877Z" style="fill:#e4cbc9;"/><clipPath id="_clip1"><path d="M23.042,4.493l-21.126,57.32l12.619,-6.389l16.499,-4.666l17.04,2.206l7.813,-49.348l-32.845,0.877Z"/></clipPath><g clip-path="url(#_clip1)"><path d="M1.358,15.973l2.79,35.476l49.826,-4.464l-1.447,-18.414l7.141,-9.275l2.836,-13.846l-61.146,10.523Z" style="fill:#fff;"/></g></g></svg>