<?xml version="1.0" encoding="UTF-8" standalone="no"?><!DOCTYPE svg PUBLIC "-//W3C//DTD SVG 1.1//EN" "http://www.w3.org/Graphics/SVG/1.1/DTD/svg11.dtd"><svg width="100%" height="100%" viewBox="0 0 4271 4271" version="1.1" xmlns="http://www.w3.org/2000/svg" xmlns:xlink="http://www.w3.org/1999/xlink" xml:space="preserve" xmlns:serif="http://www.serif.com/" style="fill-rule:evenodd;clip-rule:evenodd;stroke-linecap:round;stroke-linejoin:round;stroke-miterlimit:1.5;"><rect id="d-social-network-favicon" x="3.695" y="1.355" width="4266.67" height="4266.67" style="fill:none;"/><g id="d-social-network-favicon1" serif:id="d-social-network-favicon"><path d="M22.612,4150.42l160.091,-313.014l-7.412,-615.954l303.588,342.586l-161.354,-3150.28l3885.91,-201.295l-390.326,3842.54l-2940.33,-25.028l-144.605,135.468l-279.58,-80.763l-103.609,127.787l-322.369,-62.05Z" style="stroke:#000;stroke-width:4.17px;"/><path d="M342.384,3942.46l316.792,-170.873l77.49,-3026.52l3175.54,-247.768l-231.625,3359.12l-2700.8,34.164l-637.398,51.877Z" style="fill:#fff;stroke:#000;stroke-width:4.17px;"/><path d="M1461.89,1013.43l945.445,0c455.718,0 777.668,123.407 965.85,370.22c188.182,246.813 231.26,609.947 129.233,1089.4c-151.906,708.554 -591.753,1062.83 -1319.54,1062.83l-1234.52,0l513.533,-2522.45Zm1271.93,1286.03c83.889,-413.323 -53.28,-619.985 -411.506,-619.985l-227.86,0l-241.462,1190.37l306.079,0c163.243,0 289.642,-44.285 379.198,-132.854c89.557,-88.569 154.741,-234.413 195.551,-437.532Z"/></g></svg>