<?xml version="1.0" encoding="UTF-8" standalone="no"?><!DOCTYPE svg PUBLIC "-//W3C//DTD SVG 1.1//EN" "http://www.w3.org/Graphics/SVG/1.1/DTD/svg11.dtd"><svg width="100%" height="100%" viewBox="0 0 3841 2160" version="1.1" xmlns="http://www.w3.org/2000/svg" xmlns:xlink="http://www.w3.org/1999/xlink" xml:space="preserve" xmlns:serif="http://www.serif.com/" style="fill-rule:evenodd;clip-rule:evenodd;stroke-linejoin:round;stroke-miterlimit:2;"><rect id="d-bw" x="0.39" y="0" width="3840" height="2160" style="fill:none;"/><clipPath id="_clip1"><rect x="0.39" y="0" width="3840" height="2160"/></clipPath><g clip-path="url(#_clip1)"><rect id="frame" x="0.39" y="0" width="3840" height="2160" style="fill:#fff;"/><path d="M3131.89,583.597c-3.857,0.136 -7.7,0.193 -11.53,0.173l-11.094,-37.269l-53.66,29.196c-4.757,-1.186 -9.49,-2.503 -14.2,-3.95c-7.111,-2.185 -14.169,-4.668 -21.173,-7.448c-54.97,-21.822 -106.663,-61.979 -155.079,-120.474l-204.982,-247.651l374.595,-196.174l281.567,0l71.84,86.794c75.668,91.42 105.361,175.674 89.078,252.765c-16.283,77.09 -79.059,143.612 -188.329,199.566c-50.984,26.007 -99.938,40.652 -146.863,43.937l-1.158,-4.162l-9.012,4.697Zm10.17,-0.535l95.16,341.91l-121.675,63.412c-33.353,17.382 -63.707,26.932 -91.064,28.65c-20.749,1.303 -39.774,-1.899 -57.074,-9.607c-21.154,-9.425 -39.197,-25.555 -54.128,-48.388c9.287,8.084 19.346,14.424 30.177,19.02c25.141,10.667 53.7,11.903 85.677,3.708c19.436,-4.981 40.135,-13.446 62.097,-25.395l120.522,-65.576l-89.888,-301.974l10.026,-5.225c3.379,-0.119 6.769,-0.297 10.17,-0.535Zm65.903,-452.872l-269.324,141.297l50.822,61.401c2.899,3.502 5.826,6.84 8.78,10.011c24.666,26.485 51.255,41.446 79.767,44.882c31.926,3.849 70.834,-6.322 116.725,-30.51c93.523,-49.052 110.544,-109.509 51.064,-181.371l-37.834,-45.71Zm-21.009,30.069l28.843,34.847c45.346,54.785 32.369,100.875 -38.929,138.27c-34.986,18.441 -64.648,26.194 -88.987,23.26c-24.339,-2.933 -46.841,-16.883 -67.505,-41.848l-38.744,-46.81l205.322,-107.719Zm-25.502,152.498c52.12,-27.337 61.606,-61.029 28.457,-101.078l-21.085,-25.474l-150.093,78.745l28.323,34.219c15.105,18.25 31.554,28.447 49.347,30.591c17.792,2.145 39.476,-3.523 65.051,-17.003Zm316.083,1020.69c-6.914,7.357 -14.532,14.736 -22.853,22.136c-14.057,12.461 -28.285,22.698 -42.685,30.711c-2.333,-5.596 -4.918,-11.238 -7.753,-16.928c-3.467,-6.928 -7.012,-13.525 -10.635,-19.791c14.644,-8.367 29.066,-19.075 43.265,-32.123c8.566,-7.896 16.363,-15.755 23.389,-23.578c20.52,-22.842 34.476,-45.37 41.87,-67.582c3.212,-9.65 5.185,-19.242 5.92,-28.773c0.396,-5.136 0.432,-10.255 0.109,-15.356c-0.648,-10.21 -2.693,-20.256 -6.137,-30.138c4.357,5.929 8.177,11.912 11.458,17.948c9.127,16.792 14.092,33.997 14.893,51.616c1.516,33.339 -12.31,67.14 -41.479,101.403c-2.962,3.48 -6.083,6.965 -9.362,10.455Zm-2557.34,258.499l-93.457,140.239l-36.175,0.68l-45.152,67.863l28.175,11.216l-28.264,42.413c-0.825,0.292 -1.652,0.578 -2.482,0.856l-0.892,4.206l-20.962,31.455l-131.868,-52.493l83.414,-125.169l-53.119,-9.935l69.012,-103.723l30.723,12.23c0.297,0.118 0.593,0.237 0.887,0.356l0.24,0.098c0.093,-0.886 0.177,-1.77 0.251,-2.652l97.783,-507.912l246.157,-4.627c65.376,-1.228 120.354,7.105 164.934,25.001l-50.6,121.757l176.106,32.936c2.152,0.402 4.29,0.781 6.414,1.135c31.748,5.293 60.426,5.194 86.034,-0.297l-102.274,483.997l398.71,0c207.021,0 368.555,-52.486 484.6,-157.458l-126.536,304.478c-112.397,42.512 -243.215,63.768 -392.455,63.768l-59.343,-0c0.827,8.363 1.363,17.094 1.606,26.194c1.113,44.212 -7.813,81.206 -26.779,110.982c-12.812,20.115 -30.205,36.935 -52.18,50.462l-247.329,0l-1.75,-48.697c2.277,-0.537 4.536,-1.125 6.779,-1.765c38.169,-10.885 71.361,-36.604 99.577,-77.157l2.854,77.841l43.095,-10.77c22.983,-5.744 39.284,-16.177 48.901,-31.298c9.618,-15.122 13.869,-37.127 12.754,-66.016c-0.41,-11.226 -1.7,-21.152 -3.87,-29.776l-70.783,-0c5.792,-14.714 9.489,-28.832 11.092,-42.354c1.999,-16.87 0.739,-32.813 -3.781,-47.829c-4.566,-15.17 -12.308,-29.196 -23.226,-42.077c-19.342,-22.82 -48.652,-42.048 -87.928,-57.683l-111.781,-44.497l21.563,-102.045c-29.22,29.958 -64.816,52.664 -106.79,68.118l45.393,18.07c8.313,3.309 16.18,6.78 23.601,10.411l-52.863,79.325c-4.847,-2.94 -10.354,-5.637 -16.52,-8.091l-30.723,-12.23l-93.89,141.114l41.27,16.429c2.284,0.909 4.539,1.735 6.765,2.478l-52.714,79.101l-111.58,-44.418c24.074,28.898 28.058,70.016 11.953,123.354c-3.229,10.694 -7.266,21.879 -12.11,33.555c-2.403,5.828 -4.853,11.463 -7.347,16.907l-86.636,0c6.829,-9.31 13.114,-20.923 18.854,-34.838c2.253,-5.432 4.138,-10.639 5.656,-15.624c13.676,-44.901 -2.484,-71.652 -48.48,-80.255l-32.505,-6.079l-56.732,136.796l-47.271,0l95.975,-231.42l68.388,12.79c22.361,4.183 41.37,10.403 57.028,18.663l1.498,-2.248c3.971,1.557 7.909,3.013 11.812,4.367c-3.628,-1.798 -7.391,-3.516 -11.288,-5.153l53.702,-80.585c-7.838,-1.058 -16.094,-3.314 -24.767,-6.766l-41.27,-16.429l93.89,-141.114l30.724,12.23c3.469,1.381 6.729,2.838 9.78,4.373c7.443,3.742 13.645,7.941 18.606,12.597c-0.294,2.036 -0.634,4.086 -1.022,6.148l50.737,-76.134l45.13,17.965c-15.301,-14.603 -35.147,-27.568 -59.538,-38.895c-5.721,-2.657 -11.692,-5.223 -17.912,-7.699l-127.479,-50.746Zm-205.496,47.907c-2.104,7.162 -4.737,14.474 -7.899,21.937l5.17,-7.757l2.729,-14.18Zm440.812,-222.981c19.9,-103.714 -16.784,-154.695 -110.053,-152.942l-59.325,1.115l-57.277,298.696l79.692,-1.498c42.502,-0.799 75.203,-12.485 98.104,-35.06c22.901,-22.575 39.188,-59.345 48.859,-110.311Zm-29.821,-0.913c-7.373,38.854 -19.789,66.887 -37.248,84.097c-17.459,17.21 -42.389,26.119 -74.791,26.728l-60.754,1.142l43.666,-227.714l45.227,-0.85c71.105,-1.337 99.071,37.529 83.9,116.597Zm-25.733,-0.788c11.09,-57.8 -9.354,-86.211 -61.332,-85.234l-33.062,0.621l-31.92,166.463l44.412,-0.835c23.686,-0.445 41.911,-6.958 54.673,-19.539c12.763,-12.581 21.839,-33.073 27.229,-61.476Zm-996.73,-163.096l-102.845,-108.735l-0,-196.976l431.938,-263.984l169.179,178.867c81.546,86.217 116.744,168.325 105.594,246.323c-11.151,77.998 -69.392,148.525 -174.723,211.581c-35.646,21.262 -70.622,36.493 -104.927,45.691c-31.332,8.401 -62.104,11.771 -92.318,10.108c-13.05,-8.688 -27.812,-16.351 -44.286,-22.991c-34.264,-13.749 -64.87,-20.678 -91.818,-20.789c-32.666,-19.747 -64.598,-46.112 -95.794,-79.095Zm398.169,-235.94c-5.726,-18.338 -17.75,-37.193 -36.072,-56.564l-40.773,-43.108l-259.393,158.793l54.77,57.907c29.211,30.883 59.871,47.19 91.982,48.919c32.111,1.729 70.262,-10.991 114.453,-38.161c25.694,-15.725 45.116,-31.965 58.265,-48.719c19.771,-25.192 25.361,-51.548 16.768,-79.067Zm-94.439,105.125c-33.69,20.713 -62.775,30.41 -87.255,29.092c-24.479,-1.318 -47.854,-13.749 -70.123,-37.294l-41.755,-44.146l197.751,-121.058l31.084,32.864c48.869,51.667 38.968,98.515 -29.702,140.542Zm-16.746,-19.555c50.199,-30.723 57.437,-64.969 21.713,-102.738l-22.723,-24.024l-144.559,88.495l30.523,32.271c16.279,17.212 33.367,26.299 51.262,27.263c17.895,0.964 39.156,-6.125 63.784,-21.267Zm-168.661,-1101.7c43.381,47.156 61.953,92.027 55.717,134.613c-6.363,43.446 -38.955,82.64 -97.776,117.58c-63.638,37.666 -123.342,40.986 -179.109,9.959l-0,-119.891l5.341,5.687c16.221,17.267 33.277,26.413 51.168,27.437c17.892,1.025 39.178,-5.991 63.857,-21.048c50.304,-30.551 57.658,-64.772 22.064,-102.664l-22.641,-24.101l-119.789,72.77l-0,-100.342l221.168,0Zm17.861,745.019l-192.772,-303.12l97.983,-96.048c43.47,-42.612 85.392,-63.311 125.764,-62.096c3.491,0.105 6.97,0.374 10.438,0.807c13.792,1.721 27.215,6.079 40.267,13.073l12.195,115.954l73.131,-23.73c46.436,82.116 33.414,158.697 -39.064,229.745l-127.942,125.415Zm6.819,-347.359c-14.666,0.058 -29.822,7.755 -45.466,23.091l-23.615,23.148l91.062,142.956l31.721,-31.095c16.918,-16.584 25.699,-33.83 26.343,-51.74c0.644,-17.909 -6.823,-39.041 -22.402,-63.394c-18.292,-28.723 -37.506,-43.045 -57.643,-42.966Zm162.43,1378.5l-332.213,-136.665l2.564,-13.989l297.616,116.259l29.149,-176.773c2.741,-16.625 4.07,-32.406 3.987,-47.341c-0.09,-16.029 -1.806,-31.085 -5.149,-45.168c-5.834,-24.573 -16.621,-46.182 -32.361,-64.829c15.256,10.361 28.14,22.085 38.65,35.172c9.535,11.872 17.117,24.867 22.746,38.982l44.003,-66.03l127.478,50.746c11.266,4.485 21.712,9.265 31.338,14.341l-53.479,80.249c-6.342,-4.881 -14.222,-9.196 -23.64,-12.945l-30.723,-12.23l-93.89,141.115l41.27,16.428c5.304,2.112 10.452,3.775 15.445,4.991l-53.21,79.845l-27.938,-11.121l-1.643,8.963Zm-408.278,-10.189c23.484,-10.658 47.512,-16.803 72.084,-18.435c78.618,-5.223 159.666,37.171 243.144,127.183c1.009,1.091 2.01,2.183 3.003,3.276c80.878,88.972 110.421,182.973 88.629,282.004l-181.687,0c0.153,-0.685 0.299,-1.369 0.439,-2.052c-1.723,0.717 -3.458,1.401 -5.204,2.052l-117.107,0c-8.546,-2.555 -17.26,-5.613 -26.141,-9.175l-12.482,-5.006l13.415,14.181l-20.035,0l-25.663,-27.128l-32.395,-12.992l-0,-17.33l51.875,19.736c41.732,15.878 79.621,20.856 113.667,14.934c10.169,-1.769 19.995,-4.51 29.478,-8.224c10.633,-4.164 20.836,-9.551 30.607,-16.16c14.787,-10.002 28.587,-22.804 41.399,-38.406c4.56,-5.553 8.995,-11.46 13.304,-17.721c1.067,-1.55 2.126,-3.122 3.178,-4.716c11.698,-17.79 20.932,-34.838 27.702,-51.144c14.984,-36.091 17.896,-68.549 8.736,-97.373c-1.296,-4.078 -2.822,-8.069 -4.579,-11.973c-2.443,-5.431 -5.332,-10.692 -8.667,-15.786c-18.87,-28.822 -52.011,-52.251 -99.422,-70.289l-128.24,-48.79l-79.038,122.628l-0,-113.294Zm561.955,-1037.19c-3.703,-3.88 -7.409,-7.855 -11.12,-11.926c-100.379,-110.486 -122.565,-227.948 -66.557,-352.388l19.039,-6.178c100.463,-32.599 145.946,-99.246 136.448,-199.942c-0.822,-8.576 -1.883,-16.805 -3.182,-24.687l79.978,-113.568l354.563,381.931l-22.929,55.173l89.727,16.781l17.188,18.515l-141.758,201.295c-11.154,15.839 -22.445,30.445 -33.874,43.819c-58.587,68.556 -120.79,104.734 -186.61,108.534c-75.131,4.338 -152.102,-34.782 -230.913,-117.359Zm139.602,-150.583c71.899,77.351 134.704,77.892 188.415,1.622l34.165,-48.514l-207.088,-222.743l-45.892,65.168c-24.477,34.756 -34.378,68.041 -29.704,99.857c4.675,31.815 24.709,66.685 60.104,104.61Zm18.362,-23.515c-26.984,-28.912 -42.257,-55.496 -45.821,-79.751c-3.563,-24.255 3.985,-49.631 22.645,-76.127l34.987,-49.682l157.876,169.812l-26.046,36.984c-40.948,58.146 -88.828,57.734 -143.641,-1.236Zm15.845,-20.292c40.069,43.108 75.07,43.409 105.003,0.904l19.04,-27.036l-115.409,-124.135l-25.576,36.318c-13.641,19.369 -19.159,37.919 -16.554,55.65c2.605,17.731 13.77,37.164 33.496,58.299Zm2827.67,1625.61l-243.192,0l-144.28,-152.543l208.158,-127.218c16.288,15.105 32.561,29.924 48.818,44.457c14.351,12.829 28.691,25.436 43.018,37.819c20.916,18.078 41.806,35.682 62.672,52.811l-79.829,48.869l54.77,57.907c16.177,17.103 32.799,29.736 49.865,37.898Zm167.14,0l-64.508,0c12.234,-4.607 25.062,-10.637 38.486,-18.092c8.678,6.114 17.352,12.145 26.022,18.092Zm-448.174,-377.613c-14.031,72.223 -43.933,125.6 -89.705,160.129c-62.9,47.45 -153.927,56.402 -273.081,26.853c-31.113,-7.768 -59.403,-17.807 -84.871,-30.117c6.383,-29.326 9.613,-57.047 9.692,-83.162c0.136,-45.317 -9.221,-85.801 -28.069,-121.451c-9.555,-18.074 -21.402,-34.774 -35.541,-50.1c-12.656,-13.72 -27.148,-26.338 -43.477,-37.857c-21.604,-15.24 -46.424,-28.554 -74.457,-39.941l7.703,-308.887l385.608,91.882l-10.413,8.456l163.672,319.772l5.414,-4.396l0.116,0.121l0.021,-0.233l77.542,-62.97l-1.07,42.9c-0.805,32.307 -3.833,61.973 -9.084,89.001Zm-451.235,-244.881l-1.987,79.68c-1.06,42.497 9.186,75.678 30.738,99.544c21.552,23.866 57.575,41.744 108.07,53.634c102.745,24.414 155.281,-10.006 157.606,-103.262l1.48,-59.318l-295.907,-70.278Zm139.037,203.106c-38.495,-9.065 -65.958,-22.694 -82.389,-40.889c-16.43,-18.194 -24.242,-43.491 -23.434,-75.888l1.515,-60.746l225.589,53.578l-1.128,45.221c-1.773,71.095 -41.824,97.336 -120.153,78.724Zm1.912,-25.675c57.259,13.607 86.537,-5.576 87.833,-57.547l0.825,-33.058l-164.909,-39.166l-1.107,44.406c-0.591,23.683 5.119,42.175 17.13,55.475c12.011,13.301 32.087,23.264 60.228,29.89Zm560.61,74.481c-19.377,-35.808 -24.561,-79.984 -15.554,-132.528l30.271,-176.584l292.557,116.429l-0,15.773l-260.13,-98.178l-27.111,177.097c-4.83,31.548 -4.627,60.007 0.608,85.376c4.54,22.001 12.864,41.678 24.973,59.031l-4.079,2.493c-17.653,-14.058 -31.498,-30.361 -41.535,-48.909Zm-3226.17,-289.248c-6.294,-3.48 -13.289,-6.792 -20.986,-9.934c-54.443,-22.357 -86.35,-7.968 -95.724,43.168l-3.154,17.204l-38.561,-15.03l5.38,-32.628c8.458,-51.295 40.104,-66.252 94.937,-44.871c26.956,10.447 45.464,23.087 55.524,37.918c0.919,1.355 1.781,2.746 2.584,4.173Zm975.668,-506.148l-250.207,-58.534l2.858,-137.178c1.377,-66.121 19.538,-112.476 54.484,-139.064c34.945,-26.588 85.654,-31.785 152.125,-15.59c98.23,24.096 146.245,88.942 144.045,194.54l-1.801,86.502l-67.452,-12.615l-34.052,81.939Zm-67.242,-239.351c-57.315,-13.371 -86.514,5.932 -87.596,57.908l-0.689,33.061l165.068,38.488l0.925,-44.41c0.493,-23.686 -5.293,-42.154 -17.358,-55.405c-12.066,-13.251 -32.182,-23.132 -60.35,-29.642Zm1316.3,-525.884c-0.134,248.328 52.223,491.405 157.068,729.231c-5.236,32.165 -11.438,65.195 -18.605,99.092c-42.972,205.312 -102.111,374.156 -177.417,506.531l-194.036,-36.29c85.781,-111.896 150.382,-271.571 193.802,-479.024c109.276,-516.846 -69.405,-775.269 -536.043,-775.269l-75.302,0c31.462,-79.894 44.009,-150.156 37.641,-210.787l63.495,-0c244.981,-0 428.114,55.505 549.397,166.516Zm1189.9,591.386c0.357,29.946 -7.283,62.164 -22.92,96.654l-73.979,163.173l-289.279,-212.98l5.873,-12.954l260.647,184.81l71.051,-164.468c14.168,-32.797 21.257,-63.445 21.265,-91.943c0.007,-24.538 -5.235,-47.481 -15.726,-68.831c28.242,31.566 42.598,67.08 43.068,106.539Zm-73.316,559.414c-21.617,-17.523 -35.983,-37.733 -43.1,-60.63c-13.032,-41.932 -0.572,-91.359 37.381,-148.283c49.554,-74.071 115.504,-100.687 197.851,-79.847l-0,24.326c-70.81,-8.493 -127.8,20.807 -170.972,87.903c-36.93,57.592 -48.505,107.235 -34.725,148.927c3.21,9.714 7.732,18.915 13.565,27.604Zm-3613.03,780.413l-34.841,0l-0,-36.83l34.841,36.83Zm1465.97,-1623.55c37.002,1.839 71.718,-0.334 104.15,-6.519l-90.153,426.636c-18.102,-8.287 -39.322,-14.707 -63.659,-19.259l-33.711,-6.305l83.373,-394.553Zm2222.83,-536.449l116.368,0l-0,390.11c-57.201,-102.285 -93.248,-200.599 -108.142,-294.941c-4.969,-31.474 -7.711,-63.197 -8.226,-95.169Zm81.04,1754.54c-6.459,35.106 -24.792,52.067 -54.999,50.884c-11.265,-0.442 -24.18,-3.406 -38.747,-8.893c-15.003,-5.617 -27.419,-11.937 -37.25,-18.959c-7.91,-5.651 -14.146,-11.757 -18.707,-18.317c-0.935,-1.345 -1.812,-2.726 -2.632,-4.143c6.334,3.407 13.367,6.637 21.099,9.691c4.628,1.838 9.092,3.416 13.391,4.732c12.565,3.846 23.727,5.462 33.484,4.846c26.362,-1.664 42.477,-19.612 48.345,-53.846l2.956,-17.239l38.732,14.585l-5.004,32.688c-0.206,1.348 -0.429,2.672 -0.668,3.971Zm-163.78,382.056c-9.752,2.264 -18.935,3.163 -27.547,2.699c-24.48,-1.318 -47.854,-13.749 -70.123,-37.294l-41.755,-44.146l51.008,-31.225c4.009,3.252 8.017,6.487 12.024,9.704l-26.214,16.047l30.523,32.272c16.279,17.211 33.366,26.298 51.262,27.262c10.287,0.554 21.687,-1.553 34.199,-6.322c1.281,0.948 2.561,1.894 3.841,2.838c6.587,4.856 13.171,9.665 19.753,14.426c-13.12,6.485 -25.444,11.065 -36.971,13.739Zm-1224.25,-388.501l68.387,12.79c76.694,14.343 113.962,52.67 111.803,114.98c-0.867,25.041 -8.102,53.955 -21.704,86.742c-23.193,56.23 -50.615,94.59 -82.266,115.081c-31.651,20.491 -71.974,26.155 -120.968,16.992l-91.864,-17.181l136.612,-329.404Zm-56.903,251.189l43.663,8.166c23.286,4.355 42.452,1.663 57.495,-8.076c15.044,-9.74 28.078,-27.972 39.101,-54.698c0.413,-0.993 0.812,-1.979 1.2,-2.958c20.819,-52.564 6.144,-83.538 -44.023,-92.92l-32.505,-6.079l-64.931,156.565Zm-2155.13,-75.185c3.886,11.909 2.551,25.83 -4.004,41.762c-3.089,7.51 -7.338,15.466 -12.747,23.869c-6.745,10.527 -13.579,19.424 -20.499,26.691c-0.544,-0.579 -1.092,-1.159 -1.643,-1.739c-16.969,-17.943 -33.406,-31.689 -49.308,-41.24l-18.281,27.323c14.654,6.396 29.928,17.679 45.825,33.848c-1.428,0.731 -2.859,1.396 -4.293,1.995c-8.353,3.492 -17.422,5.026 -27.206,4.604c-11.079,-8.24 -21.713,-12.967 -31.899,-14.181l-3.676,5.494l-36.751,-13.982l91.72,-142.534l30.907,11.759c22.834,8.687 36.786,20.798 41.855,36.331Zm1282.07,-1924.1l76.669,0c50.736,9.996 83.782,30.753 99.137,62.271c16.504,33.876 12.572,80.183 -11.796,138.922c-23.194,56.23 -50.616,94.59 -82.267,115.081c-7.397,4.789 -15.268,8.768 -23.613,11.937c-27.36,10.391 -59.811,12.076 -97.354,5.054l-91.864,-17.18l131.088,-316.085Zm99.041,134.602c-2.025,-25.251 -19.686,-40.991 -52.985,-47.218l-32.504,-6.08l-64.931,156.566l43.662,8.166c23.287,4.355 42.452,1.663 57.496,-8.076c14.931,-9.667 27.883,-27.701 38.854,-54.102l10.408,-49.256Zm1561.16,1181.5l-79.73,-57.618l11.015,-9.978l81.949,57.021c-2.592,1.991 -5.196,4.047 -7.81,6.171l-5.424,4.404Zm445.48,-528.505c-5.264,-4.899 -11.251,-9.804 -17.959,-14.716c-4.271,-3.14 -8.436,-5.947 -12.497,-8.421c-41.018,-24.985 -71.294,-15.936 -90.827,27.147l-7.222,15.931l-33.78,-23.914l13.114,-30.357c20.618,-47.724 54.942,-54.581 102.973,-20.569c6.026,4.248 11.484,8.502 16.375,12.762c14.286,12.442 23.728,24.929 28.326,37.463c0.564,1.538 1.063,3.096 1.497,4.674Zm157.04,542.439c3.806,2.008 7.96,3.885 12.462,5.631l30.831,11.955l47.309,-72.502l-0,74.601l-17.292,27.564l-31.04,-11.402c-22.933,-8.424 -37.023,-20.373 -42.27,-35.847Zm-2467.2,521.798l30.723,12.23c3.276,1.304 6.365,2.676 9.269,4.117c1.343,0.666 2.646,1.348 3.91,2.043c36.281,19.981 39.735,52.038 10.362,96.174c-1.359,2.051 -2.72,4.039 -4.084,5.964c-4.481,6.324 -8.989,11.966 -13.523,16.927l-0.608,-16.927l-40.5,-0c-11.204,16.055 -23.191,29.775 -35.961,41.161c-3.974,-1.106 -8.043,-2.488 -12.208,-4.146l-41.27,-16.429l93.89,-141.114Zm1896.75,-432.851l118.678,28.279l-2.01,80.595c-2.542,2.475 -5.292,4.913 -8.249,7.315l-34.482,28.002l-73.937,-144.191Zm112.182,-16.461c-20.195,-5.282 -40.687,-14.427 -61.476,-27.436c23.123,-7.439 43.615,1.707 61.476,27.436Zm-1927.18,-218.417l34.295,-162.295l23.713,4.435c51.102,9.557 65.376,41.517 42.824,95.879c-11.024,26.726 -24.058,44.958 -39.101,54.697c-15.044,9.74 -34.209,12.432 -57.496,8.076l-4.235,-0.792Zm358.499,-682.219l205.558,-0c323.167,-0 446.911,178.969 371.233,536.907c-36.816,175.901 -95.62,302.202 -176.412,378.903c-80.792,76.701 -194.821,115.051 -342.086,115.051l-276.124,-0l217.831,-1030.86Zm67.23,243.366l-114.98,544.129l145.749,-0c77.733,-0 137.922,-20.243 180.567,-60.729c42.645,-40.486 73.684,-107.152 93.117,-200c39.946,-188.933 -25.371,-283.4 -195.951,-283.4l-108.502,0Zm216.726,279.063c-11.998,57.325 -31.162,98.485 -57.491,123.481c-26.329,24.996 -63.49,37.495 -111.483,37.495l-89.986,-0l70.989,-335.949l66.99,0c105.317,0 145.644,58.325 120.981,174.973Zm-56.642,-1.036c12.174,-57.581 -7.732,-86.372 -59.72,-86.372l-33.068,-0l-35.042,165.834l44.42,-0c23.69,-0 42.034,-6.17 55.031,-18.509c12.997,-12.338 22.456,-32.656 28.379,-60.953Zm1441.11,150.984c-3.174,-2.907 -6.718,-5.774 -10.632,-8.602l-26.801,-19.369l-112.736,102.272l-32.276,-22.458l123.48,-116.109l27.144,18.887c20.054,13.954 30.661,29.08 31.821,45.379Zm-352.968,-483.512l11.948,40.031l-22.269,11.606c-21.009,10.949 -34.425,24.897 -40.248,41.846c-5.823,16.949 -4.822,39.339 3.004,67.169c2.526,9.055 5.438,17.08 8.737,24.075c-15.343,-8.037 -27.17,-25.982 -35.48,-53.834c-8.322,-27.687 -9.723,-50.055 -4.203,-67.105c5.519,-17.05 18.683,-31.236 39.493,-42.559l39.018,-21.229Z"/></g></svg>